HIERARCHY
ROOT Hips
{
	OFFSET 0.000000 97.167313 0.000000
	CHANNELS 6 Xposition Yposition Zposition Xrotation Yrotation Zrotation
	JOINT Spine
	{
		OFFSET 0.000000 13.784798 0.064400
		CHANNELS 3 Xrotation Yrotation Zrotation
		JOINT Spine1
		{
			OFFSET 0.000000 12.037903 0.404700
			CHANNELS 3 Xrotation Yrotation Zrotation
			JOINT Spine2
			{
				OFFSET 0.000000 17.795601 0.420200
				CHANNELS 3 Xrotation Yrotation Zrotation
				JOINT Neck
				{
					OFFSET 0.000000 39.131302 11.954600
					CHANNELS 3 Xrotation Yrotation Zrotation
					JOINT Head
					{
						OFFSET 0.000000 14.456192 15.627699
						CHANNELS 3 Xrotation Yrotation Zrotation
						JOINT HeadTop_End
						{
							OFFSET 0.000000 15.703506 7.603401
							CHANNELS 3 Xrotation Yrotation Zrotation
							End Site
							{
								OFFSET 0.000000 17.447403 0.000000
							}
						}
					}
				}
				JOINT LeftShoulder
				{
					OFFSET 17.399500 24.608795 1.168800
					CHANNELS 3 Xrotation Yrotation Zrotation
					JOINT LeftArm
					{
						OFFSET 18.980635 5.765305 1.818600
						CHANNELS 3 Xrotation Yrotation Zrotation
						JOINT LeftForeArm
						{
							OFFSET 49.290169 0.000000 0.000000
							CHANNELS 3 Xrotation Yrotation Zrotation
							JOINT LeftHand
							{
								OFFSET 31.562012 0.000000 0.000000
								CHANNELS 3 Xrotation Yrotation Zrotation
								JOINT LeftHandThumb1
								{
									OFFSET 6.133995 -4.388519 7.076070
									CHANNELS 3 Xrotation Yrotation Zrotation
									JOINT LeftHandThumb2
									{
										OFFSET 6.037666 -3.485840 3.485847
										CHANNELS 3 Xrotation Yrotation Zrotation
										JOINT LeftHandThumb3
										{
											OFFSET 6.496506 -3.750763 3.750761
											CHANNELS 3 Xrotation Yrotation Zrotation
											JOINT LeftHandThumb4
											{
												OFFSET 5.616882 -3.242905 3.242910
												CHANNELS 3 Xrotation Yrotation Zrotation
												End Site
												{
													OFFSET -1.254608 7.132141 0.375429
												}
											}
										}
									}
								}
								JOINT LeftHandPinky1
								{
									OFFSET 18.920792 -0.453171 -11.426712
									CHANNELS 3 Xrotation Yrotation Zrotation
									JOINT LeftHandPinky2
									{
										OFFSET 4.919586 0.000000 0.000000
										CHANNELS 3 Xrotation Yrotation Zrotation
										JOINT LeftHandPinky3
										{
											OFFSET 5.233047 0.000000 0.000000
											CHANNELS 3 Xrotation Yrotation Zrotation
											JOINT LeftHandPinky4
											{
												OFFSET 5.571716 0.000000 0.000000
												CHANNELS 3 Xrotation Yrotation Zrotation
												End Site
												{
													OFFSET -3.459808 4.342407 -0.466164
												}
											}
										}
									}
								}
								JOINT LeftHandRing1
								{
									OFFSET 22.726120 -0.094986 -6.500475
									CHANNELS 3 Xrotation Yrotation Zrotation
									JOINT LeftHandRing2
									{
										OFFSET 6.408615 0.000000 0.000000
										CHANNELS 3 Xrotation Yrotation Zrotation
										JOINT LeftHandRing3
										{
											OFFSET 6.150223 0.000000 0.000000
											CHANNELS 3 Xrotation Yrotation Zrotation
											JOINT LeftHandRing4
											{
												OFFSET 6.145386 0.000000 0.000000
												CHANNELS 3 Xrotation Yrotation Zrotation
												End Site
												{
													OFFSET -3.671402 4.923981 -0.202372
												}
											}
										}
									}
								}
								JOINT LeftHandMiddle1
								{
									OFFSET 23.373947 0.000000 0.000001
									CHANNELS 3 Xrotation Yrotation Zrotation
									JOINT LeftHandMiddle2
									{
										OFFSET 6.996567 0.000000 0.000000
										CHANNELS 3 Xrotation Yrotation Zrotation
										JOINT LeftHandMiddle3
										{
											OFFSET 7.015945 0.000000 0.000000
											CHANNELS 3 Xrotation Yrotation Zrotation
											JOINT LeftHandMiddle4
											{
												OFFSET 7.721573 0.000000 0.000000
												CHANNELS 3 Xrotation Yrotation Zrotation
												End Site
												{
													OFFSET -4.651108 6.158463 0.251582
												}
											}
										}
									}
								}
								JOINT LeftHandIndex1
								{
									OFFSET 21.310577 -0.490082 6.209344
									CHANNELS 3 Xrotation Yrotation Zrotation
									JOINT LeftHandIndex2
									{
										OFFSET 7.536453 0.000000 0.000000
										CHANNELS 3 Xrotation Yrotation Zrotation
										JOINT LeftHandIndex3
										{
											OFFSET 7.512344 0.000000 0.000000
											CHANNELS 3 Xrotation Yrotation Zrotation
											JOINT LeftHandIndex4
											{
												OFFSET 10.212402 0.000000 0.000001
												CHANNELS 3 Xrotation Yrotation Zrotation
												End Site
												{
													OFFSET -5.180801 8.690506 1.388433
												}
											}
										}
									}
								}
							}
						}
					}
				}
				JOINT RightShoulder
				{
					OFFSET -17.399500 24.608795 1.168800
					CHANNELS 3 Xrotation Yrotation Zrotation
					JOINT RightArm
					{
						OFFSET -18.980635 5.765305 1.818600
						CHANNELS 3 Xrotation Yrotation Zrotation
						JOINT RightForeArm
						{
							OFFSET -49.290169 0.000000 0.000000
							CHANNELS 3 Xrotation Yrotation Zrotation
							JOINT RightHand
							{
								OFFSET -31.562012 0.000000 0.000000
								CHANNELS 3 Xrotation Yrotation Zrotation
								JOINT RightHandThumb1
								{
									OFFSET -6.133995 -4.388519 7.076070
									CHANNELS 3 Xrotation Yrotation Zrotation
									JOINT RightHandThumb2
									{
										OFFSET -6.037666 -3.485840 3.485847
										CHANNELS 3 Xrotation Yrotation Zrotation
										JOINT RightHandThumb3
										{
											OFFSET -6.496506 -3.750763 3.750761
											CHANNELS 3 Xrotation Yrotation Zrotation
											JOINT RightHandThumb4
											{
												OFFSET -5.616882 -3.242905 3.242910
												CHANNELS 3 Xrotation Yrotation Zrotation
												End Site
												{
													OFFSET 1.254608 7.132141 0.375429
												}
											}
										}
									}
								}
								JOINT RightHandIndex1
								{
									OFFSET -21.310577 -0.490082 6.209344
									CHANNELS 3 Xrotation Yrotation Zrotation
									JOINT RightHandIndex2
									{
										OFFSET -7.536453 0.000000 0.000000
										CHANNELS 3 Xrotation Yrotation Zrotation
										JOINT RightHandIndex3
										{
											OFFSET -7.512344 0.000000 0.000000
											CHANNELS 3 Xrotation Yrotation Zrotation
											JOINT RightHandIndex4
											{
												OFFSET -10.212402 0.000000 0.000001
												CHANNELS 3 Xrotation Yrotation Zrotation
												End Site
												{
													OFFSET 5.180801 8.690506 1.388433
												}
											}
										}
									}
								}
								JOINT RightHandMiddle1
								{
									OFFSET -23.373947 0.000000 0.000001
									CHANNELS 3 Xrotation Yrotation Zrotation
									JOINT RightHandMiddle2
									{
										OFFSET -6.996567 0.000000 0.000000
										CHANNELS 3 Xrotation Yrotation Zrotation
										JOINT RightHandMiddle3
										{
											OFFSET -7.015945 0.000000 0.000000
											CHANNELS 3 Xrotation Yrotation Zrotation
											JOINT RightHandMiddle4
											{
												OFFSET -7.721573 0.000000 0.000000
												CHANNELS 3 Xrotation Yrotation Zrotation
												End Site
												{
													OFFSET 4.651108 6.158463 0.251582
												}
											}
										}
									}
								}
								JOINT RightHandRing1
								{
									OFFSET -22.726120 -0.094986 -6.500475
									CHANNELS 3 Xrotation Yrotation Zrotation
									JOINT RightHandRing2
									{
										OFFSET -6.408615 0.000000 0.000000
										CHANNELS 3 Xrotation Yrotation Zrotation
										JOINT RightHandRing3
										{
											OFFSET -6.150223 0.000000 0.000000
											CHANNELS 3 Xrotation Yrotation Zrotation
											JOINT RightHandRing4
											{
												OFFSET -6.145386 0.000000 0.000000
												CHANNELS 3 Xrotation Yrotation Zrotation
												End Site
												{
													OFFSET 3.671402 4.923981 -0.202372
												}
											}
										}
									}
								}
								JOINT RightHandPinky1
								{
									OFFSET -18.920792 -0.453171 -11.426712
									CHANNELS 3 Xrotation Yrotation Zrotation
									JOINT RightHandPinky2
									{
										OFFSET -4.919586 0.000000 0.000000
										CHANNELS 3 Xrotation Yrotation Zrotation
										JOINT RightHandPinky3
										{
											OFFSET -5.233047 0.000000 0.000000
											CHANNELS 3 Xrotation Yrotation Zrotation
											JOINT RightHandPinky4
											{
												OFFSET -5.571716 0.000000 0.000000
												CHANNELS 3 Xrotation Yrotation Zrotation
												End Site
												{
													OFFSET 3.459808 4.342407 -0.466164
												}
											}
										}
									}
								}
							}
						}
					}
				}
			}
		}
	}
	JOINT LeftUpLeg
	{
		OFFSET 19.899099 -7.885101 -3.429500
		CHANNELS 3 Xrotation Yrotation Zrotation
		JOINT LeftLeg
		{
			OFFSET 1.745560 -36.997807 10.304700
			CHANNELS 3 Xrotation Yrotation Zrotation
			JOINT LeftFoot
			{
				OFFSET -1.745558 -29.803308 -13.615400
				CHANNELS 3 Xrotation Yrotation Zrotation
				JOINT LeftToeBase
				{
					OFFSET 1.181900 -18.539904 15.226099
					CHANNELS 3 Xrotation Yrotation Zrotation
					JOINT LeftToe_End
					{
						OFFSET -0.863701 1.402801 16.534700
						CHANNELS 3 Xrotation Yrotation Zrotation
						End Site
						{
							OFFSET 0.000000 16.616566 0.000000
						}
					}
				}
			}
		}
	}
	JOINT RightUpLeg
	{
		OFFSET -19.899099 -7.885101 -3.429500
		CHANNELS 3 Xrotation Yrotation Zrotation
		JOINT RightLeg
		{
			OFFSET -1.745560 -36.997807 10.304700
			CHANNELS 3 Xrotation Yrotation Zrotation
			JOINT RightFoot
			{
				OFFSET 1.745558 -29.803308 -13.615400
				CHANNELS 3 Xrotation Yrotation Zrotation
				JOINT RightToeBase
				{
					OFFSET -1.181900 -18.539904 15.226099
					CHANNELS 3 Xrotation Yrotation Zrotation
					JOINT RightToe_End
					{
						OFFSET 0.863701 1.402801 16.534700
						CHANNELS 3 Xrotation Yrotation Zrotation
						End Site
						{
							OFFSET 0.000000 16.616566 0.000000
						}
					}
				}
			}
		}
	}
}
MOTION
Frames: 6
Frame Time: 0.033333
1.590002 50.609802 20.225754 -3.553574 1.322300 -2.659177 8.920836 1.577324 -3.763230 -2.954316 3.753834 -3.621631 -2.894642 3.813997 -3.588686 3.911783 8.021851 -2.446624 1.753106 41.634026 -22.792128 -0.000001 -0.000001 0.000002 31.976968 4.836957 -2.524157 42.880757 -35.521871 -33.121346 0.006901 -91.418974 0.006772 30.788731 -23.573884 74.926881 31.244523 -51.491375 34.995868 -0.974868 18.479113 -33.528374 -12.546824 -0.378958 -3.323067 -0.000000 0.000001 -0.000001 2.309827 11.993967 -15.292484 0.166310 1.387411 -13.670706 0.105411 1.107443 -10.873295 -0.000000 0.000003 -0.000004 1.912626 10.162732 -14.369574 0.203879 1.533566 -15.144218 0.263763 1.739703 -17.240789 -0.000000 0.000001 0.000003 1.202119 7.142019 -15.857923 0.330317 1.941157 -19.313109 0.233142 1.637800 -16.201658 0.000000 -0.000003 0.000008 -0.292020 1.247553 -11.871005 0.399795 2.128965 -21.269771 0.084989 0.995291 -9.760439 0.000001 -0.000000 -0.000001 -52.460361 11.077963 -24.746160 27.224362 -7.225921 51.405745 0.000027 69.375352 -0.000031 -31.821554 0.475776 -0.085745 18.635515 8.941411 0.065504 6.482684 -29.816426 11.420452 86.493670 -61.075217 47.701648 -0.000003 -0.000000 -0.000001 4.233602 -1.941755 88.977475 3.651397 -4.547513 77.514540 3.109631 -4.393056 70.572253 -0.000003 0.000000 0.000002 0.852375 -6.774080 87.511826 3.645772 -4.546250 77.443492 1.412035 -3.342191 45.797405 -0.000001 0.000000 -0.000004 -1.772043 -7.132352 91.627459 3.592532 -4.534086 76.771019 1.701593 -3.600719 50.576656 -0.000001 0.000001 -0.000003 -5.550262 -8.776215 99.340402 4.188935 -4.633619 84.223377 3.014409 -4.358427 69.324173 0.000001 -0.000002 0.000005 -86.916807 -12.451356 20.188811 81.312282 -4.295303 -3.734943 11.055600 -6.048894 -6.035521 -0.103111 -0.000001 0.000000 0.000000 -0.000000 -0.000000 -81.427241 12.086500 -17.069852 80.163806 2.545453 2.940099 8.759133 -1.128235 12.992223 -0.191622 -0.000002 -0.000004 -0.000000 0.000000 -0.000000 
1.854164 50.648743 20.108891 -3.840800 1.854249 -3.066793 8.995298 1.804960 -3.751348 -2.811615 4.170014 -3.515286 -2.752891 4.226360 -3.480403 4.463057 8.490662 -3.152625 2.934643 43.305213 -22.627225 0.000000 0.000001 0.000001 32.111246 4.817329 -2.017092 42.849684 -36.614513 -31.983853 0.005617 -90.821565 0.005633 30.237271 -23.880209 75.296839 31.251216 -51.490880 35.005290 -0.961621 18.473671 -33.545436 -12.547943 -0.378263 -3.306937 0.000001 -0.000000 0.000000 2.277066 11.972919 -15.223993 0.166404 1.387810 -13.674713 0.105493 1.107846 -10.877274 -0.000000 0.000002 -0.000004 1.907754 10.148515 -14.360422 0.203987 1.533917 -15.147725 0.263787 1.739800 -17.241856 -0.000001 -0.000001 0.000003 1.204487 7.147644 -15.870028 0.330328 1.941154 -19.313198 0.233141 1.637796 -16.201670 0.000002 0.000000 0.000008 -0.292361 1.247451 -11.871138 0.399633 2.128497 -21.265000 0.084882 0.994826 -9.755821 0.000002 0.000001 0.000001 -53.643862 10.919869 -24.139804 24.998077 -4.913422 53.637879 0.000066 69.381376 -0.000062 -33.061705 -7.282289 -2.612594 18.643725 8.854594 0.062283 6.390125 -29.878775 11.293655 86.514939 -61.013499 47.720046 0.000000 0.000000 0.000002 4.218601 -1.933552 88.969949 3.652193 -4.547686 77.524641 3.110397 -4.393309 70.582369 0.000003 -0.000002 0.000003 0.834598 -6.771409 87.481466 3.645766 -4.546257 77.443635 1.412037 -3.342200 45.797392 -0.000001 -0.000000 -0.000004 -1.781990 -7.119562 91.514064 3.592030 -4.533976 76.764592 1.701198 -3.600386 50.570188 -0.000000 -0.000001 -0.000002 -5.556613 -8.787065 99.243202 4.188730 -4.633603 84.220911 3.014347 -4.358394 69.323490 -0.000001 0.000000 0.000001 -87.344077 -12.136159 19.651130 81.222110 -4.355815 -3.607110 11.625675 -6.052990 -5.281059 -0.103111 -0.000002 0.000000 0.000000 -0.000000 -0.000000 -80.411380 12.166796 -17.528989 79.975634 2.445632 3.021537 8.526017 -1.170353 13.611862 -0.191622 -0.000002 -0.000004 0.000000 0.000000 0.000000 
2.141869 50.693314 20.012295 -4.042693 2.487421 -3.506314 9.053207 2.037899 -3.648379 -2.710241 4.532611 -3.291205 -2.655351 4.585695 -3.254447 4.860312 8.704816 -3.341532 3.040597 44.219276 -21.670353 0.000001 -0.000002 -0.000003 32.202631 4.680241 -1.555315 42.621702 -37.630005 -31.444203 -0.046126 -90.106028 -0.046528 29.855293 -24.433045 75.550150 31.258023 -51.490501 35.015569 -0.947933 18.467880 -33.563444 -12.548863 -0.377461 -3.289700 0.000001 -0.000000 -0.000002 2.242423 11.949794 -15.151040 0.166514 1.388216 -13.678924 0.105562 1.108260 -10.881514 -0.000000 0.000000 -0.000002 1.902547 10.133281 -14.350659 0.204077 1.534303 -15.151644 0.263831 1.739963 -17.243477 -0.000001 -0.000001 0.000003 1.206987 7.153578 -15.882959 0.330336 1.941137 -19.313244 0.233140 1.637819 -16.201677 -0.000001 -0.000002 0.000009 -0.292710 1.247321 -11.871272 0.399448 2.128024 -21.259980 0.084803 0.994317 -9.750835 0.000001 0.000001 0.000004 -54.755410 10.706862 -23.569808 21.271905 -3.558433 56.683918 0.000072 72.744827 -0.000057 -35.330537 -10.890697 -3.661048 18.651037 8.768967 0.058855 6.299023 -29.938133 11.167521 86.535949 -60.952820 47.738180 -0.000001 -0.000001 -0.000000 4.203874 -1.925464 88.962551 3.653001 -4.547830 77.534593 3.111157 -4.393582 70.592321 -0.000001 0.000002 0.000002 0.817177 -6.768758 87.451529 3.645787 -4.546251 77.443786 1.412037 -3.342182 45.797399 0.000001 0.000000 -0.000004 -1.791727 -7.106974 91.402486 3.591498 -4.533868 76.758308 1.700827 -3.600076 50.563795 -0.000002 0.000001 -0.000003 -5.563349 -8.796856 99.147777 4.188569 -4.633586 84.218650 3.014299 -4.358387 69.322848 -0.000000 -0.000000 0.000006 -87.896762 -11.760739 19.015697 81.102267 -4.428534 -3.462821 12.249225 -6.049023 -4.457707 -0.103111 -0.000002 0.000000 -0.000000 -0.000001 -0.000000 -79.335352 12.285004 -18.073446 79.804443 2.327267 3.124101 8.200646 -1.231299 14.333726 -0.191621 -0.000002 -0.000004 0.000000 0.000000 -0.000000 
2.425315 50.735580 19.947586 -4.123048 3.140023 -3.979745 9.066379 2.216931 -3.513989 -2.698805 4.761583 -3.062557 -2.648400 4.813078 -3.024669 4.921541 8.751404 -3.034859 1.817771 44.699275 -20.037991 0.000000 0.000000 0.000001 32.282425 4.442192 -1.336390 42.343864 -38.134408 -31.439887 -0.011404 -89.633296 -0.011649 29.676458 -24.933682 75.582265 31.264996 -51.490057 35.026484 -0.933817 18.461621 -33.582223 -12.550131 -0.376466 -3.271492 0.000001 -0.000000 -0.000002 2.206254 11.924785 -15.074327 0.166648 1.388674 -13.683347 0.105654 1.108715 -10.885941 0.000001 0.000002 -0.000002 1.897051 10.117182 -14.340336 0.204193 1.534707 -15.155710 0.263923 1.740165 -17.245773 -0.000001 -0.000001 0.000003 1.209637 7.159818 -15.896569 0.330312 1.941138 -19.313328 0.233128 1.637819 -16.201654 0.000001 -0.000003 0.000008 -0.293067 1.247203 -11.871427 0.399245 2.127530 -21.254690 0.084732 0.993775 -9.745529 0.000000 -0.000000 -0.000001 -55.750125 10.591445 -23.038742 17.558157 -3.472026 59.418411 0.000173 78.338138 -0.000196 -35.941196 -12.977572 -3.276557 18.657710 8.685511 0.055230 6.210417 -29.993864 11.043440 86.556440 -60.893766 47.755771 0.000001 -0.000002 0.000002 4.189513 -1.917580 88.955359 3.653749 -4.548021 77.544319 3.111912 -4.393862 70.602019 -0.000003 0.000002 0.000001 0.800230 -6.766177 87.422344 3.645794 -4.546259 77.443963 1.412040 -3.342197 45.797378 0.000001 0.000000 -0.000004 -1.801195 -7.094707 91.293934 3.591051 -4.533760 76.752202 1.700415 -3.599778 50.557607 -0.000004 0.000001 -0.000003 -5.570373 -8.805316 99.055201 4.188393 -4.633564 84.216711 3.014265 -4.358372 69.322226 -0.000002 0.000001 0.000006 -88.554762 -11.405767 18.376119 80.986728 -4.524273 -3.315631 12.867409 -6.036782 -3.646270 -0.103111 -0.000002 0.000000 -0.000000 0.000000 -0.000000 -78.306930 12.393880 -18.608292 79.647266 2.182962 3.239690 7.821098 -1.308031 15.096128 -0.191622 -0.000002 -0.000004 0.000000 0.000000 0.000000 
2.669531 50.774361 19.929117 -4.039275 3.677202 -4.448509 9.014173 2.305465 -3.401981 -2.810302 4.838492 -2.891595 -2.763253 4.889666 -2.854089 4.656979 8.743125 -2.455795 -0.173960 45.056104 -18.294460 0.000000 -0.000001 -0.000001 32.342185 4.279469 -1.461234 42.231575 -38.040377 -31.657053 -0.000405 -89.568983 -0.000400 29.599349 -25.229100 75.308436 31.272178 -51.489579 35.037757 -0.919338 18.454963 -33.601607 -12.551804 -0.375314 -3.252508 -0.000001 0.000001 -0.000001 2.168935 11.898184 -14.994529 0.166732 1.389149 -13.688033 0.105739 1.109176 -10.890601 0.000002 0.000001 -0.000000 1.891315 10.100395 -14.329592 0.204284 1.535110 -15.159926 0.263987 1.740479 -17.248536 -0.000001 0.000001 0.000003 1.212360 7.166331 -15.910777 0.330337 1.941165 -19.313313 0.233118 1.637807 -16.201660 0.000000 -0.000002 0.000006 -0.293445 1.247132 -11.871565 0.399050 2.126992 -21.249174 0.084634 0.993225 -9.739999 -0.000001 -0.000002 0.000001 -56.584473 10.813177 -22.535705 14.640953 -4.364783 61.339620 0.000594 84.685740 -0.000642 -35.176167 -15.100710 -2.358781 18.663874 8.605203 0.051433 6.125388 -30.045329 10.922841 86.576186 -60.837041 47.772467 0.000001 0.000001 0.000002 4.175763 -1.910001 88.948481 3.654503 -4.548171 77.553649 3.112615 -4.394102 70.611356 -0.000001 -0.000003 -0.000001 0.784008 -6.763651 87.394197 3.645796 -4.546254 77.444182 1.412023 -3.342194 45.797402 0.000001 -0.000001 -0.000004 -1.810268 -7.082862 91.189623 3.590554 -4.533643 76.746362 1.700030 -3.599445 50.551712 -0.000003 0.000004 -0.000001 -5.577398 -8.813355 98.966224 4.188286 -4.633552 84.215174 3.014201 -4.358339 69.321639 -0.000001 -0.000005 0.000003 -89.247705 -11.163212 17.855465 80.916957 -4.624428 -3.191047 13.363744 -6.019789 -2.971111 -0.103111 -0.000003 0.000000 -0.000000 -0.000000 -0.000000 -77.507498 12.453201 -19.010496 79.493485 2.022946 3.345007 7.462635 -1.385793 15.787588 -0.191622 -0.000003 -0.000004 0.000000 -0.000001 0.000000 
2.849269 50.803505 19.968390 -3.817957 4.013943 -4.834051 8.918047 2.312019 -3.337634 -3.001453 4.814634 -2.773431 -2.956001 4.865714 -2.737663 4.199631 8.761168 -1.889395 -2.172852 45.466250 -16.948696 0.000001 -0.000000 -0.000000 32.380352 4.398931 -1.997371 42.453922 -37.558770 -31.554682 -0.005145 -89.843024 -0.006046 29.462281 -25.334213 74.774193 31.279736 -51.489169 35.049536 -0.904424 18.447803 -33.621630 -12.553696 -0.374038 -3.232900 0.000003 -0.000001 -0.000004 2.130698 11.870115 -14.912345 0.166835 1.389613 -13.692835 0.105856 1.109679 -10.895445 0.000000 0.000001 -0.000004 1.885428 10.083046 -14.318506 0.204403 1.535535 -15.164309 0.264087 1.740755 -17.251424 -0.000001 -0.000001 0.000005 1.215225 7.173055 -15.925438 0.330335 1.941175 -19.313308 0.233130 1.637802 -16.201660 -0.000000 -0.000000 0.000008 -0.293756 1.246979 -11.871711 0.398840 2.126447 -21.243440 0.084539 0.992640 -9.734298 -0.000000 0.000001 0.000002 -57.214374 11.405750 -22.079000 12.592004 -5.819909 62.402343 -0.000010 90.493081 -0.000334 -34.969575 -16.346024 -1.130763 18.669391 8.528937 0.047478 6.044950 -30.091983 10.807104 86.594600 -60.783274 47.787494 -0.000001 0.000000 -0.000001 4.162742 -1.902790 88.941808 3.655187 -4.548338 77.562385 3.113294 -4.394344 70.620085 -0.000003 0.000000 0.000001 0.768725 -6.761256 87.367388 3.645821 -4.546251 77.444359 1.412029 -3.342198 45.797402 -0.000001 0.000003 -0.000008 -1.818845 -7.071672 91.090647 3.590146 -4.533537 76.740775 1.699703 -3.599157 50.546122 0.000002 0.000002 -0.000007 -5.584344 -8.821079 98.881714 4.188184 -4.633550 84.214047 3.014176 -4.358320 69.321045 0.000002 -0.000002 0.000005 -89.866575 -11.061034 17.521238 80.928617 -4.701092 -3.111257 13.637397 -6.004072 -2.517748 -0.103111 -0.000002 0.000000 -0.000000 0.000000 -0.000000 -77.047116 12.477478 -19.242953 79.376941 1.890800 3.420594 7.166860 -1.448578 16.310220 -0.191622 -0.000003 -0.000004 0.000000 -0.000001 0.000000 
